<?xml version="1.0" encoding="utf-8"?>
<!-- Generator: Adobe Illustrator 27.5.0, SVG Export Plug-In . SVG Version: 6.00 Build 0)  -->
<svg version="1.1" id="Layer_1" xmlns="http://www.w3.org/2000/svg" xmlns:xlink="http://www.w3.org/1999/xlink" x="0px" y="0px"
	 viewBox="0 0 800 800" style="enable-background:new 0 0 800 800;" xml:space="preserve">
<style type="text/css">
	.st0{fill:#434A54;}
	.st1{fill:#965353;}
	.st2{fill:#E6E9ED;}
	.st3{fill:#CCD1D9;}
	.st4{fill:#656D78;}
</style>
<g>
	<path class="st0" d="M676.7,29.3c-6.5-6.5-6.5-17.1,0-23.6c6.5-6.5,17.1-6.5,23.6,0l11.8,11.8c6.5,6.5,6.5,17.1,0,23.6
		c-6.5,6.5-17.1,6.5-23.6,0L676.7,29.3z"/>
	<path class="st0" d="M759.2,111.7c-6.5-6.5-6.5-17.1,0-23.6c6.5-6.5,17.1-6.5,23.6,0l11.8,11.8c6.5,6.5,6.5,17.1,0,23.6
		c-6.5,6.5-17.1,6.5-23.6,0L759.2,111.7z"/>
	<path class="st0" d="M665,64.6L665,64.6l-11.8-11.8c-6.5-6.5-6.5-17.1,0-23.6c6.5-6.5,17.1-6.5,23.6,0l0,0L688.5,41
		c6.5,6.5,6.5,17.1,0,23.6C682,71.1,671.5,71.1,665,64.6z"/>
	<path class="st0" d="M735.6,135.3c-6.5-6.5-6.5-17.1,0-23.6c6.5-6.5,17.1-6.5,23.6,0l11.8,11.8c6.5,6.5,6.5,17.1,0,23.6
		c-6.5,6.5-17.1,6.5-23.6,0L735.6,135.3z"/>
	<path class="st0" d="M629.6,76.4c-6.5-6.5-6.5-17.1,0-23.6c6.5-6.5,17.1-6.5,23.6,0l94.3,94.3c6.5,6.5,6.5,17.1,0,23.6
		c-6.5,6.5-17.1,6.5-23.6,0L629.6,76.4z"/>
</g>
<path class="st1" d="M794.3,100.2c3.1-3.1,4.8-7.3,4.9-11.6l0.6-70.7c0.1-9.1-7.2-16.7-16.4-16.8L713.2,0c-4.5-0.1-8.9,1.7-12.1,4.9
	L108.8,598.5c-6.5,6.5-6.5,17,0,23.6l70.7,70.7c3.1,3.1,7.4,4.9,11.8,4.9c4.4,0,8.7-1.8,11.8-4.9L794.3,100.2z"/>
<circle class="st2" cx="233.5" cy="566.7" r="216.6"/>
<path class="st0" d="M233.5,800L233.5,800c-62.3,0-120.9-24.3-165-68.3c-44-44.1-68.3-102.6-68.3-165c0-62.3,24.3-120.9,68.3-165
	c44.1-44.1,102.7-68.3,165-68.3s120.9,24.3,164.9,68.3c44.1,44.1,68.3,102.6,68.3,165c0,62.3-24.3,120.9-68.3,165
	C354.4,775.7,295.8,800,233.5,800z M233.5,366.8c-53.4,0-103.6,20.8-141.4,58.6c-37.8,37.8-58.6,88-58.6,141.4
	c0,53.4,20.8,103.6,58.6,141.4c37.8,37.8,88,58.6,141.4,58.6s103.6-20.8,141.4-58.6c37.8-37.7,58.6-88,58.6-141.4
	c0-53.4-20.8-103.6-58.6-141.4C337.1,387.6,286.9,366.8,233.5,366.8z"/>
<g id="strings">
	<path class="st3" d="M133,701.9c-6.5-6.5-6.5-17.1,0-23.6L743.7,67.7c6.5-6.5,17-6.5,23.6,0c6.5,6.5,6.5,17.1,0,23.6L156.6,701.9
		C150.1,708.4,139.6,708.4,133,701.9z"/>
	<path class="st3" d="M98.3,667.2c-6.5-6.5-6.5-17.1,0-23.6l561-561.1c6.5-6.5,17.1-6.5,23.6,0c6.5,6.5,6.5,17.1,0,23.6l-561,561
		C115.4,673.7,104.9,673.7,98.3,667.2z"/>
</g>
<path class="st4" d="M794.3,100.2c3.1-3.1,4.8-7.3,4.9-11.6l0.6-70.7c0.1-9.1-7.2-16.7-16.4-16.8L713.2,0c-4.5-0.1-8.9,1.7-12.1,4.9
	l-71.4,71.6l94.3,94.3L794.3,100.2z"/>
<g>
	<path class="st0" d="M233.5,661l-94.3-94.3c-6.5-6.5-6.5-17.1,0-23.6c6.5-6.5,17-6.5,23.6,0l0,0l94.3,94.3c6.5,6.5,6.5,17.1,0,23.6
		C250.6,667.5,240,667.5,233.5,661z"/>
	<path class="st0" d="M179.3,714c2-6,0.4-12.6-4-17l-70.7-70.7c-4.5-4.5-11.1-6-17-4c-6,2-10.4,7.2-11.2,13.5l-11.8,82.5
		c-0.7,5.2,1,10.4,4.7,14.1c3.7,3.7,9,5.5,14.1,4.7l82.5-11.8C172.1,724.4,177.3,720,179.3,714z"/>
</g>
</svg>
