<?xml version="1.0" encoding="utf-8"?>
<!-- Generator: Adobe Illustrator 27.7.0, SVG Export Plug-In . SVG Version: 6.00 Build 0)  -->
<svg version="1.1" id="Layer_1" xmlns="http://www.w3.org/2000/svg" xmlns:xlink="http://www.w3.org/1999/xlink" x="0px" y="0px"
	 viewBox="0 0 800 800" style="enable-background:new 0 0 800 800;" xml:space="preserve">
<style type="text/css">
	.st0{fill:#C2C7E5;}
	.st1{fill:#F5BB1B;}
	.st2{fill:#35464E;}
	.st3{fill:#E72845;}
	.st4{fill:#C7161E;}
	.st5{fill:#526C78;}
	.st6{fill:#263137;}
</style>
<path class="st0" d="M612.3,156.8h30.1v552.8h-30.1V156.8z"/>
<path id="crash_x5F_cymbal_x5F_1" class="st1" d="M642.4,146.6v-14.2h-30.1v14.2h-77.5v27.8h185.1v-27.8H642.4z M534.8,196.6h185.1
	v27.8H534.8V196.6z"/>
<path class="st0" d="M170.7,156.8h30.1v552.8h-30.1V156.8z"/>
<path id="crash_x5F_cymbal_x5F_2" class="st1" d="M105.6,108.3l171,71.2l-10.7,25.7L94.9,134L105.6,108.3z"/>
<path id="drum_x5F_1" class="st2" d="M57.1,271.4h248.1v27.8H57.1V271.4z"/>
<path class="st3" d="M69.1,299.1h224v106h-224V299.1z"/>
<path class="st2" d="M57.1,405.2h248.1v27.9H57.1V405.2z"/>
<path class="st4" d="M69.1,299.1h224v30.5h-224V299.1z"/>
<path class="st2" d="M106.1,299.1H139v72.2h-32.9V299.1z M224.1,299.1H257v72.2h-32.9V299.1z"/>
<path id="drum_x5F_2" class="st2" d="M503.2,271.4h248.1v27.8H503.2V271.4z"/>
<path class="st3" d="M515.4,299.1h224v106h-224V299.1z"/>
<path class="st2" d="M503.2,405.2h248.1v27.9H503.2V405.2z"/>
<path class="st4" d="M515.4,299.1h224v30.5h-224V299.1z"/>
<path class="st2" d="M552.3,299.1h32.8v72.2h-32.8V299.1z M670.4,299.1h32.8v72.2h-32.8V299.1z"/>
<path class="st0" d="M568.2,687.7l-26.1,21.8l-40.9-49l26.1-21.8L568.2,687.7z M286.6,638.6l26.1,21.8l-40.9,49l-26.1-21.8
	L286.6,638.6z"/>
<path class="st5" d="M231.8,524.5c0,97.1,78.7,175.8,175.8,175.8s175.8-78.7,175.8-175.8s-78.7-175.8-175.8-175.7
	C310.5,348.8,231.8,427.5,231.8,524.5L231.8,524.5z"/>
<path class="st6" d="M407.5,714.2c-104.7-0.1-189.5-85-189.6-189.7c0.1-104.7,84.9-189.5,189.6-189.6
	c104.7,0.1,189.5,84.9,189.6,189.6C597.1,629.2,512.2,714.1,407.5,714.2z M407.5,362.8c-89.3,0.1-161.7,72.5-161.8,161.8
	c0,89.2,72.6,161.8,161.8,161.8s161.9-72.6,161.9-161.8C569.3,435.2,496.9,362.8,407.5,362.8L407.5,362.8z"/>
</svg>
