<?xml version="1.0" encoding="utf-8"?>
<!-- Generator: Adobe Illustrator 27.5.0, SVG Export Plug-In . SVG Version: 6.00 Build 0)  -->
<svg version="1.1" id="Layer_1" xmlns="http://www.w3.org/2000/svg" xmlns:xlink="http://www.w3.org/1999/xlink" x="0px" y="0px"
	 viewBox="0 0 800 800" style="enable-background:new 0 0 800 800;" xml:space="preserve">
<style type="text/css">
	.st0{fill:#E2A437;}
	.st1{fill:#F6BB42;}
	.st2{fill:#FFCE54;}
	.st3{opacity:0.1;enable-background:new    ;}
</style>
<g>
	<path class="st0" d="M33.1,466.6c-9.2,0-16.7-7.4-16.7-16.7V133.3c0-9.2,7.5-16.7,16.7-16.7s16.7,7.4,16.7,16.7V450
		C49.8,459.2,42.3,466.6,33.1,466.6z"/>
	<path class="st0" d="M116.7,416.7H100c-9.2,0-16.7-7.4-16.7-16.7c0-9.2,7.5-16.7,16.7-16.7h16.7c9.2,0,16.7,7.4,16.7,16.7
		C133.3,409.2,125.9,416.7,116.7,416.7z"/>
	<path class="st0" d="M116.7,450H100c-9.2,0-16.7-7.5-16.7-16.6c0-9.2,7.5-16.7,16.7-16.7h16.7c9.2,0,16.7,7.5,16.7,16.7
		C133.3,442.5,125.9,450,116.7,450z"/>
	<path class="st0" d="M116.7,483.3H100c-9.2,0-16.7-7.5-16.7-16.7s7.5-16.7,16.7-16.7h16.7c9.2,0,16.7,7.5,16.7,16.7
		C133.3,475.9,125.9,483.3,116.7,483.3z"/>
</g>
<g>
	<path class="st1" d="M166.2,566.6c-1.7,0-16.8-0.5-32.2-8.4c-21.9-11.2-34-32-34-58.4V279c0-9.2,7.5-16.7,16.7-16.7
		s16.7,7.5,16.7,16.7v220.8c0,13.7,4.8,22.8,15.1,28.3c8.8,4.8,18.4,5.2,18.5,5.2h-0.1L166.2,566.6z"/>
	<path class="st1" d="M249.8,683.3c-9.2,0-16.7-7.5-16.7-16.7V233.3c0-9.2,7.5-16.7,16.7-16.7s16.7,7.4,16.7,16.7v433.4
		C266.5,675.9,259,683.3,249.8,683.3z"/>
</g>
<g>
	<path class="st2" d="M456,400H166.5c-9.2,0-16.7-7.4-16.7-16.7s7.5-16.7,16.7-16.7H456c9.2,0,16.7,7.5,16.7,16.7S465.2,400,456,400
		z"/>
	<path class="st2" d="M465.8,466.6H166.5c-9.2,0-16.7-7.4-16.7-16.7c0-9.2,7.5-16.6,16.7-16.6h299.4c9.2,0,16.7,7.5,16.7,16.6
		C482.5,459.2,475,466.6,465.8,466.6z"/>
	<path class="st2" d="M450,533.5H168.1c-9.2,0-16.7-7.5-16.7-16.7s7.5-16.7,16.7-16.7H450c9.2,0,16.7,7.5,16.7,16.7
		S459.2,533.5,450,533.5z"/>
</g>
<g id="bigring">
	<path class="st1" d="M249.8,683.3c-62.3,0-120.9-24.3-165-68.4c-44.1-44-68.3-102.6-68.3-165c0-62.3,24.3-120.9,68.3-165
		c44.1-44.1,102.7-68.3,165-68.3s120.9,24.3,165,68.3c44.1,44.1,68.3,102.7,68.3,165c0,62.4-24.3,120.9-68.3,165
		C370.7,659.1,312.1,683.3,249.8,683.3z M249.8,250c-110.3,0-200,89.7-200,200s89.7,200,200,200s200-89.7,200-200
		S360.1,250,249.8,250z"/>
	<path class="st1" d="M50,150H16.7C7.5,150,0,142.5,0,133.3s7.5-16.7,16.7-16.7H50c9.2,0,16.7,7.4,16.7,16.7
		C66.7,142.5,59.2,150,50,150z"/>
</g>
<path class="st2" d="M249.8,249.5c-55.2,0-100,44.8-100,100V550c0,55.1,44.9,100,100,100s100-44.9,100-100V349.5
	C349.8,294.3,304.9,249.5,249.8,249.5z M316.5,550c0,36.8-29.9,66.7-66.7,66.7s-66.7-29.9-66.7-66.7V349.5
	c0-36.8,29.9-66.7,66.7-66.7s66.7,29.9,66.7,66.7V550z"/>
<path class="st3" d="M482.7,463.4c-14.4,21.4-30.5,42.5-48.2,63.2c-13.6,32.6-35.5,60.8-63.1,82c0.5,1.1,1.1,2.1,1.8,3
	c3.3,4.2,8.2,6.5,13.2,6.5c3,0,6-0.8,8.8-2.5c12.4-7.7,25.7-15.6,39.6-23.4C463.4,555.2,480.1,510.6,482.7,463.4z"/>
<path id="part1" class="st1" d="M745.7,528.2l-145-307c-3.5-7.3-11.7-11.1-19.5-9s-13,9.6-12.2,17.7c1.4,15.2-0.6,58.4-18.1,112.8
	c-12.9,40-32,80.3-56.7,119.8C463.1,512,423,560.3,374.9,606.1c-6.2,5.9-6.9,15.5-1.7,22.3c3.3,4.2,8.2,6.5,13.2,6.5
	c3,0,6-0.8,8.8-2.5c72.8-45.1,177.6-98.9,263.1-98.9c34.4,0,55.1,9.3,61.4,14.4c5.8,5.5,14.4,5.9,20.9,1.2
	C747.1,544.4,749.1,535.5,745.7,528.2z"/>
<path class="st0" d="M743.6,342.9c45.3,87.9,53.1,174,17.3,192.4c-35.8,18.5-101.5-37.8-146.8-125.6s-53.1-174-17.3-192.5
	C632.5,198.8,698.2,255.1,743.6,342.9z"/>
<path id="part2output" class="st2" d="M745.7,555.5c-22.8,0-49.3-14-76.6-40.6c-25.7-25-49.9-58.7-69.9-97.6
	c-22.9-44.4-37.4-89.9-40.8-128.4c-3.9-43.6,7-74.3,30.7-86.5c6.9-3.6,14.6-5.4,22.8-5.4c22.8,0,49.3,14,76.6,40.6
	c25.7,25,49.9,58.8,69.9,97.6c22.9,44.3,37.4,89.9,40.9,128.4c3.9,43.6-7,74.3-30.7,86.5C761.6,553.7,754,555.5,745.7,555.5z
	 M611.8,230.4c-2.9,0-5.3,0.5-7.5,1.6c-10.4,5.4-15.3,26-12.8,53.9c3.1,34.3,16.3,75.5,37.3,116.1c18.1,35.2,40.7,66.8,63.5,89
	c28.9,28.1,46.9,31.2,53.3,31.2c2.9,0,5.3-0.5,7.5-1.7c10.4-5.4,15.3-26,12.8-53.9c-3.1-34.3-16.3-75.5-37.3-116.1
	c-18.1-35.2-40.7-66.8-63.6-89C636.3,233.5,618.3,230.4,611.8,230.4z"/>
</svg>
