<?xml version="1.0" encoding="utf-8"?>
<!-- Generator: Adobe Illustrator 27.7.0, SVG Export Plug-In . SVG Version: 6.00 Build 0)  -->
<svg version="1.1" id="Layer_1" xmlns="http://www.w3.org/2000/svg" xmlns:xlink="http://www.w3.org/1999/xlink" x="0px" y="0px"
	 viewBox="0 0 800 800" style="enable-background:new 0 0 800 800;" xml:space="preserve">
<style type="text/css">
	.st15{fill:#BB1A34;}/*st0*/
	.st16{fill:#292F33;}/*st1*/
	.st17{fill:#F5F8FA;}/*st2*/
	.st18{fill:#CCD6DD;}/*st3*/
</style>
<path class="st15" d="M485.1,456.9c-47.1,15.7-62.8-62.8-62.8-62.8s21.4-21.5,5.2-40.6c25.3-25.3,10.5-37.9,10.5-37.9
	c-43.4-43.4-113.7-43.4-157.1,0c-4.6,4.6-8.7,9.6-12.3,15.1c-1.4,1.9-2.6,3.9-3.8,5.8l-0.3,0.6c-6.3,10.4-10.8,21.7-13.4,33.5
	c-3.5,7.1-8.4,14.6-17.3,23.6c-31.4,31.4-110-15.7-172.8,47.1c-0.6,0.6-1,1.5-1.5,2.3c-2.1,1.9-4.3,3.5-6.3,5.6
	c-73.8,73.8-66.7,200.4,15.7,282.8c78.3,78.3,196.4,88.4,271.3,26c1.3-0.7,2.6-1.4,3.7-2.4c1.6-1.6,2.8-3.1,4.3-4.7
	c1.2-1.1,2.4-2.1,3.6-3.2c37.6-37.6,52-82.9,46.4-129.1c-1.5-22-3.7-39.2,8.7-51.6c15.7-15.7,62.8,0,94.3-31.4
	C547.9,488.3,514.9,447,485.1,456.9L485.1,456.9z"/>
<path class="st16" d="M333,420.2L673.9,79.4l47.1,47.2L380.2,467.4L333,420.2z"/>
<path class="st17" d="M222.2,647.4c39.6,28.4,43.5,77.2,41.3,105.6c-0.9,11.7,11.5,20,21.8,14.2c57-32.4,102.3-84.2,89.7-174.5
	c-2.5-16.3,2.5-47,50.5-53.5c48-6.4,65.4-24.4,71.3-33c3.4-4.9,6.4-18.5-6.9-19c-13.4-0.5-46.5,9.9-76.2-25.2
	c-29.7-35.2-34.6-49.5-35.6-55c-1-5.4-31.3-82.1-56.1-41.4c-20.6,33.8-43.5,100.2-117.5,117.5c-30.1,7-68.2,22.3-79.2,43.6
	c-18.5,35.6,10.2,60.6,35,77.4C185,620.8,222.2,647.4,222.2,647.4L222.2,647.4z"/>
<path class="st16" d="M290.5,431.4l31.4-31.4l78.6,78.6l-31.4,31.4L290.5,431.4z M191,530.8l31.4-31.4l78.6,78.6l-31.4,31.4
	L191,530.8z"/>
<path id="string" class="st18" d="M164.4,604.2l484.5-483.6l11.8,11.8L176.2,616L164.4,604.2z M183.7,623.5l484.5-483.6l11.8,11.8
	L195.5,635.3L183.7,623.5z"/>
<path id="bottom_x5F_of_x5F_string" class="st16" d="M218.1,629.4c8.6,8.6,8.6,22.8,0,31.4c-8.6,8.6-22.8,8.6-31.4,0l-47.2-47.1
	c-8.6-8.7-8.6-22.7,0-31.4h0c8.7-8.6,22.7-8.6,31.4,0L218.1,629.4z"/>
<circle id="big_x5F_circle" class="st16" cx="289.5" cy="656.8" r="22.2"/>
<path id="small_x5F_circle" class="st16" d="M321,708.5c0,8.4-6.8,15.2-15.2,15.3c-8.4,0-15.2-6.8-15.3-15.2c0,0,0,0,0,0
	c0-8.4,6.8-15.2,15.3-15.2C314.2,693.2,321,700.1,321,708.5z"/>
<path id="head_x5F_of_x5F_guitar" class="st15" d="M779.7,100.9c9.2,9.3,9.2,24.3,0,33.6l-96.9,67.1c-9.3,9.2-24.3,9.2-33.6,0
	l-50.3-50.4c-9.2-9.3-9.2-24.3,0-33.6L666,20.7c9.3-9.2,24.3-9.2,33.6,0L779.7,100.9z"/>
</svg>
