<?xml version="1.0" encoding="utf-8"?>
<!-- Generator: Adobe Illustrator 27.5.0, SVG Export Plug-In . SVG Version: 6.00 Build 0)  -->
<svg version="1.1" id="Layer_1" xmlns="http://www.w3.org/2000/svg" xmlns:xlink="http://www.w3.org/1999/xlink" x="0px" y="0px"
	 viewBox="0 0 800 800" style="enable-background:new 0 0 800 800;" xml:space="preserve">
<style type="text/css">
	.st0{fill:#ABB8B9;}
	.st1{fill:#ED8C18;}
	.st2{fill:#000003;}
</style>
<g id="color">
	<path class="st0" d="M304.9,507.8c-15.7,9.1-35.8,3.7-44.9-12c-3-5.2-4.4-10.9-4.4-16.5h-0.1V400v-79.3c0-18.2,14.8-32.9,32.9-32.9
		c6.8,0,13.2,2.1,18.4,5.6l66.7,38.5l1.7,1v-12.3c0-18.2,14.8-32.9,32.9-32.9c6.8,0,13.2,2.1,18.4,5.6l66.7,38.5l1.7,1l66.9,38.6
		c15.7,9,21.1,29.1,12.1,44.8c-3.1,5.4-7.5,9.5-12.5,12.3l-68.2,39.4l0,0.1l-68.7,39.7c-15.7,9.1-35.8,3.7-44.9-12
		c-3-5.2-4.4-10.9-4.4-16.5h-0.1v-12.3l-1.7,1l0,0.1L304.9,507.8L304.9,507.8z M783.3,400c0-211.7-171.6-383.3-383.3-383.3
		S16.7,188.3,16.7,400c0,211.7,171.6,383.3,383.3,383.3C611.7,783.3,783.3,611.7,783.3,400z"/>
	<path class="st1" d="M260,495.8c9.1,15.7,29.2,21.1,44.9,12l68.7-39.7l0-0.1l1.7-1v12.3h0.1c0,5.6,1.4,11.3,4.4,16.5
		c9.1,15.7,29.2,21.1,44.9,12l68.7-39.7l0-0.1l68.2-39.4c5-2.8,9.4-7,12.5-12.3c9-15.7,3.6-35.8-12.1-44.8L495,333l-1.7-1
		l-66.7-38.5c-5.3-3.5-11.6-5.6-18.4-5.6c-18.2,0-32.9,14.7-32.9,32.9V333l-1.7-1l-66.7-38.5c-5.3-3.5-11.6-5.6-18.4-5.6
		c-18.2,0-32.9,14.7-32.9,32.9V400v79.3h0.1C255.5,484.9,257,490.6,260,495.8z"/>
</g>
<g id="outline">
	<path class="st2" d="M400,0C179.4,0,0,179.4,0,400c0,220.6,179.4,400,400,400c220.6,0,400-179.4,400-400C800,179.4,620.6,0,400,0z
		 M400,766.7C197.8,766.7,33.3,602.2,33.3,400C33.3,197.8,197.8,33.3,400,33.3c202.2,0,366.7,164.5,366.7,366.7
		C766.7,602.2,602.2,766.7,400,766.7z"/>
	<path class="st2" d="M422.5,134.3c9.2,0.7,17.2-6,18-15.2c0.8-9.2-6-17.2-15.2-18c-8.4-0.7-16.9-1.1-25.3-1.1
		c-165.4,0-300,134.6-300,300c0,9.2,7.5,16.7,16.7,16.7s16.7-7.5,16.7-16.7c0-147,119.6-266.7,266.7-266.7
		C407.5,133.3,415,133.7,422.5,134.3z"/>
	<path class="st2" d="M683.3,383.3c-9.2,0-16.7,7.5-16.7,16.7c0,147-119.6,266.7-266.7,266.7c-7.5,0-15-0.3-22.5-1
		c-9.2-0.8-17.2,6-18,15.2c-0.8,9.2,6,17.2,15.2,18c8.4,0.7,16.9,1.1,25.3,1.1c165.4,0,300-134.6,300-300
		C700,390.8,692.5,383.3,683.3,383.3z"/>
	<path class="st2" d="M467.7,142.1l1.3,0.4c1.4,0.4,2.9,0.6,4.3,0.6c7.4,0,14.1-4.9,16.1-12.4c2.4-8.9-2.9-18-11.8-20.4l-1.1-0.3
		c-8.9-2.5-18.1,2.8-20.5,11.6C453.6,130.4,458.8,139.6,467.7,142.1z"/>
	<path class="st2" d="M332.2,657.9l-0.2-0.1c-0.4-0.1-0.8-0.2-1.2-0.3c-8.9-2.2-18,3.1-20.2,12.1c-2.3,8.9,3.1,18,12.1,20.2l1,0.3
		c1.4,0.4,2.9,0.6,4.3,0.6c7.4,0,14.1-4.9,16.1-12.4C346.4,669.4,341.1,660.3,332.2,657.9z"/>
	<path class="st2" d="M361.1,494.6c1.1,3.3,2.5,6.5,4.3,9.6c8.8,15.2,25.3,24.7,42.9,24.7c8.7,0,17.3-2.3,24.8-6.7l68.7-39.7
		c0.4-0.2,0.8-0.5,1.2-0.8l66.8-38.6c7.8-4.4,14.3-10.8,18.7-18.5c6.6-11.5,8.3-24.8,4.9-37.5c-3.4-12.8-11.7-23.4-23.1-30
		l-66.5-38.4c-0.7-0.5-1.4-0.9-2.1-1.3l-66.3-38.3c-8.1-5.3-17.5-8.1-27.2-8.1c-22,0-40.7,14.4-47.2,34.3l-45.4-26.2
		c-8.1-5.3-17.5-8.1-27.2-8.1c-27.4,0-49.6,22.3-49.6,49.6v158.6c0,0.6,0,1.3,0.1,1.9c0.3,8,2.6,15.9,6.6,22.9
		c8.8,15.2,25.3,24.7,42.9,24.7c8.7,0,17.3-2.3,24.8-6.7L361.1,494.6z M288.5,495.5c-5.8,0-11.2-3.1-14.1-8.1
		c-1.5-2.5-2.2-5.2-2.2-8.1c0-0.5,0-1-0.1-1.6V320.7c0-9,7.3-16.3,16.3-16.3c3.3,0,6.4,1,9.1,2.8c0.3,0.2,0.6,0.4,1,0.6l66.8,38.6
		c0.3,0.1,0.5,0.3,0.7,0.5c5.1,3.4,11.7,3.7,17.1,0.8c5.4-2.9,8.8-8.5,8.8-14.7v-12.3c0-9,7.3-16.3,16.3-16.3c3.3,0,6.4,1,9.1,2.8
		c0.3,0.2,0.6,0.4,1,0.6l66.8,38.6c0.2,0.1,0.5,0.3,0.7,0.4c0.3,0.2,0.6,0.4,0.9,0.5l66.9,38.6c3.7,2.1,6.4,5.6,7.5,9.8
		c1.1,4.2,0.6,8.5-1.6,12.2c-1.5,2.6-3.6,4.7-6.1,6.1c-0.1,0-0.2,0.1-0.2,0.1L485,453.6c-0.4,0.2-0.8,0.5-1.2,0.8l-67.4,38.9
		c-2.5,1.5-5.2,2.2-8.1,2.2c-5.8,0-11.2-3.1-14.1-8.1c-1.5-2.5-2.2-5.2-2.2-8.1c0-0.5,0-1-0.1-1.5v-10.8c0-5.9-3.2-11.4-8.3-14.4
		c-5.1-3-11.5-3-16.6,0l-1.7,1c-0.4,0.2-0.8,0.5-1.2,0.8l-67.4,38.9C294,494.8,291.3,495.5,288.5,495.5z"/>
</g>
</svg>
