<?xml version="1.0" encoding="utf-8"?>
<!-- Generator: Adobe Illustrator 27.5.0, SVG Export Plug-In . SVG Version: 6.00 Build 0)  -->
<svg version="1.1" id="Layer_1" xmlns="http://www.w3.org/2000/svg" xmlns:xlink="http://www.w3.org/1999/xlink" x="0px" y="0px"
	 viewBox="0 0 800 800" style="enable-background:new 0 0 800 800;" xml:space="preserve">
<g>
	<g>
		<path d="M305,141.3c-76,28.6-135.7,90.2-162.5,167.5L257.3,340c15-36.3,43.1-65.6,78.6-81.9L305,141.3z"/>
	</g>
</g>
<g>
	<g>
		<path d="M539.5,467.1c-16,33.6-43.6,60.6-77.4,75.6l30.9,116.6c74.2-27.3,133.6-86.5,161.8-161L539.5,467.1z"/>
	</g>
</g>
<g>
	<g id="rolingdisk">
		<path d="M400,0C180.9,0,3.9,179,3.9,400c0,220.9,176.9,400,396.1,400c219.1,0,396.1-179,396.1-400C796.1,179.1,619.2,0,400,0z
			 M297.3,375.3c-3.2,13.5-16.9,21.7-30.3,18.1l-161.6-43.8c-12.9-3.5-20.6-16.7-17.4-29.6c28.6-113.3,115.7-202.8,227.5-233.5
			c13.1-3.6,26.7,4.2,30.2,17.3L389,267.1c3.4,12.9-4.2,26.3-17.1,29.9C334.8,307.3,306.2,337.3,297.3,375.3z M344.3,400
			c0-31.1,25-56.3,55.7-56.3c30.7,0,55.7,25.3,55.7,56.3s-25,56.3-55.7,56.3S344.3,431.1,344.3,400z M482.3,714.1
			c-13.1,3.5-26.5-4.3-30-17.4L409,533.5c-3.5-13.1,4.4-26.5,17.5-30c35.5-9.3,64.1-37.2,74.7-72.8c3.8-12.8,17-20.1,29.9-16.7
			l161.6,43.8c13.1,3.5,20.9,17.1,17.2,30.2C679.1,598.2,591.9,684.8,482.3,714.1z"/>
	</g>
</g>
</svg>
