<?xml version="1.0" encoding="utf-8"?>
<!-- Generator: Adobe Illustrator 27.5.0, SVG Export Plug-In . SVG Version: 6.00 Build 0)  -->
<svg version="1.1" id="Layer_1" xmlns="http://www.w3.org/2000/svg" xmlns:xlink="http://www.w3.org/1999/xlink" x="0px" y="0px"
	 viewBox="0 0 512 512" style="enable-background:new 0 0 512 512;" xml:space="preserve">
<style type="text/css">
	.st0{fill:#656D78;}
	.st1{fill:#FFCE54;}
	.st2{fill:#434A54;}
	.st3{fill:#7F4545;}
	.st4{fill:#965353;}
	.st5{fill:#E6E9ED;}
	.st6{fill:#A85D5D;}
	.st7{fill:#CCD1D9;}
</style>
<rect x="216.6" y="439" class="st0" width="78.3" height="23.7"/>
<g>
	<path class="st1" d="M234.7,458.6c-5.9,0-10.7-4.8-10.7-10.7v-10.7c0-5.9,4.8-10.7,10.7-10.7s10.7,4.8,10.7,10.7V448
		C245.3,453.9,240.6,458.6,234.7,458.6z"/>
	<path class="st1" d="M277.3,458.6c-5.9,0-10.7-4.8-10.7-10.7v-10.7c0-5.9,4.8-10.7,10.7-10.7c5.9,0,10.7,4.8,10.7,10.7V448
		C288,453.9,283.2,458.6,277.3,458.6z"/>
</g>
<g id="supports">
	<path class="st2" d="M213.3,448c-5.9,0-10.7-4.8-10.7-10.7V320c0-5.9,4.8-10.7,10.7-10.7S224,314.1,224,320v117.3
		C224,443.2,219.2,448,213.3,448z"/>
	<path class="st2" d="M298.7,448c-5.9,0-10.7-4.8-10.7-10.7V320c0-5.9,4.8-10.7,10.7-10.7s10.7,4.8,10.7,10.7v117.3
		C309.3,443.2,304.5,448,298.7,448z"/>
	<path class="st2" d="M480,202.7c-2.6,0-5.2-0.9-7.3-2.9l-128-119.5c-4.3-4-4.5-10.8-0.5-15.1c4-4.3,10.8-4.5,15.1-0.5l128,119.5
		c4.3,4,4.5,10.8,0.5,15.1C485.7,201.5,482.8,202.7,480,202.7z"/>
</g>
<g id="woodenplanks">
	<path class="st3" d="M10.7,202.7c-4.4,0-8.5-2.8-10.1-7.1c-2-5.6,1-11.6,6.5-13.6L433.8,32.6c5.6-1.9,11.6,1,13.6,6.5
		c1.9,5.6-1,11.6-6.5,13.6L14.2,202.1C13,202.5,11.8,202.7,10.7,202.7z"/>
	<path class="st3" d="M64,309.3H32c-5.9,0-10.7,4.8-10.7,10.7v149.3c0,5.9,4.8,10.7,10.7,10.7h32c5.9,0,10.7-4.8,10.7-10.7V320
		C74.7,314.1,69.9,309.3,64,309.3z"/>
	<path class="st3" d="M480,309.3h-32c-5.9,0-10.7,4.8-10.7,10.7v149.3c0,5.9,4.8,10.7,10.7,10.7h32c5.9,0,10.7-4.8,10.7-10.7V320
		C490.7,314.1,485.9,309.3,480,309.3z"/>
</g>
<g>
	<path class="st2" d="M21.3,458.6v10.7c0,5.9,4.8,10.7,10.7,10.7h32c5.9,0,10.7-4.8,10.7-10.7v-10.7H21.3z"/>
	<path class="st2" d="M437.3,458.6v10.7c0,5.9,4.8,10.7,10.7,10.7h32c5.9,0,10.7-4.8,10.7-10.7v-10.7H437.3z"/>
</g>
<path class="st4" d="M501.3,181.3H10.7C4.8,181.3,0,186.1,0,192v128c0,5.9,4.8,10.7,10.7,10.7h490.6c5.9,0,10.7-4.8,10.7-10.7V192
	C512,186.1,507.2,181.3,501.3,181.3z"/>
<rect id="whitekeys" x="42.7" y="256" class="st5" width="426.6" height="32"/>
<g>
	<rect x="469.3" y="256" class="st6" width="42.7" height="32"/>
	<rect x="0" y="256" class="st6" width="42.7" height="32"/>
</g>
<g id="book">
	<rect x="256" y="170.7" class="st5" width="42.7" height="64"/>
	<rect x="213.3" y="170.7" class="st5" width="42.7" height="64"/>
</g>
<g id="blackkeys">
	<path id="key9" class="st2" d="M426.7,277.3c5.9,0,10.7-4.8,10.7-10.7V256H416v10.7C416,272.6,420.8,277.3,426.7,277.3z"/>
	<path id="key8" class="st2" d="M384,277.3c5.9,0,10.7-4.8,10.7-10.7V256h-21.3v10.7C373.3,272.6,378.1,277.3,384,277.3z"/>
	<path id="key7" class="st2" d="M341.3,277.3c5.9,0,10.7-4.8,10.7-10.7V256h-21.3v10.7C330.7,272.6,335.4,277.3,341.3,277.3z"/>
	<path id="key6" class="st2" d="M298.7,277.3c5.9,0,10.7-4.8,10.7-10.7V256H288v10.7C288,272.6,292.8,277.3,298.7,277.3z"/>
	<path id="key5" class="st2" d="M256,277.3c5.9,0,10.7-4.8,10.7-10.7V256h-21.3v10.7C245.3,272.6,250.1,277.3,256,277.3z"/>
	<path id="key4" class="st2" d="M213.3,277.3c5.9,0,10.7-4.8,10.7-10.7V256h-21.3v10.7C202.7,272.6,207.4,277.3,213.3,277.3z"/>
	<path id="key3" class="st2" d="M170.7,277.3c5.9,0,10.7-4.8,10.7-10.7V256H160v10.7C160,272.6,164.8,277.3,170.7,277.3z"/>
	<path id="key2" class="st2" d="M128,277.3c5.9,0,10.7-4.8,10.7-10.7V256h-21.3v10.7C117.3,272.6,122.1,277.3,128,277.3z"/>
	<path id="key1" class="st2" d="M85.3,277.3c5.9,0,10.7-4.8,10.7-10.7V256H74.7v10.7C74.7,272.6,79.4,277.3,85.3,277.3z"/>
	<path id="footpad" class="st2" d="M298.7,480h-85.3c-5.9,0-10.7-4.8-10.7-10.7v-32c0-5.9,4.8-10.7,10.7-10.7h85.3
		c5.9,0,10.7,4.8,10.7,10.7v32C309.3,475.2,304.5,480,298.7,480z M224,458.6h64V448h-64V458.6z"/>
</g>
<rect x="245.3" y="170.7" class="st7" width="21.3" height="64"/>
</svg>
