<?xml version="1.0" encoding="utf-8"?>
<!-- Generator: Adobe Illustrator 27.6.1, SVG Export Plug-In . SVG Version: 6.00 Build 0)  -->
<svg version="1.1" id="Layer_1" xmlns="http://www.w3.org/2000/svg" xmlns:xlink="http://www.w3.org/1999/xlink" x="0px" y="0px"
	 viewBox="0 0 800 800" style="enable-background:new 0 0 800 800;" xml:space="preserve">
<style type="text/css">
	.st19{fill:#DE7F11;}/* #st0 */
	.st20{fill:#333333;}/* #st1 */
	.st21{fill:#B3660D;}/* #st2 */
	.st22{fill:#E2D8C7;}/* #st3 */
</style>
<path class="st19" d="M334,704.4c3.4-35.3,20.6-45.6,32-47.2c41-5.9,32.4-19.4,23.7-23.7c-47.6-23.3-9.5-73.4-1.3-84.4
	c29.5-39.4,79.2-12.4,79.2-12.4c-4.1-58,44.1-55,68.5-68.5c110.9-61.6,16.1-153.4-17-186.5s-124.9-127.9-186.5-17
	c-13.5,24.3-10.6,72.7-68.5,68.5c0,0,27.1,49.7-12.4,79.2c-11,8.2-61.1,46.3-84.4-1.3c-4.3-8.7-17.8-17.3-23.7,23.7
	c-1.6,11.4-11.6,29.6-47.2,32c-85.3,5.7-106.3,123.3,4,233.6C212.1,812,326.2,785.8,334,704.4L334,704.4z"/>
<path class="st20" d="M381.8,467.1L333,418.3l342.3-318l24.4,24.4L381.8,467.1z M729.4,87.3l40.9,40.9L760,138.5l-41-40.9L729.4,87.3
	z"/>
<g>
	<path class="st20" d="M673.2,49.1l34.4,34.4l-10.3,10.3l-34.4-34.4L673.2,49.1z"/>
	<path class="st20" d="M666.9,77.7l-10.7-23.2l12-12l23.2,10.7L666.9,77.7z"/>
</g>
<g>
	<path class="st20" d="M702.3,106.6l40.9,40.9l-10.3,10.4l-40.9-41L702.3,106.6z"/>
	<path class="st20" d="M737.3,127.3l10.7,23.2l-12,12l-23.2-10.7L737.3,127.3z"/>
</g>
<path class="st20" d="M637.6,73.1l40.9,40.9l-10.3,10.3l-40.9-40.9L637.6,73.1z"/>
<path class="st21" d="M758.1,86.6l-44.7-44.7L737.9,25L775,62.2L758.1,86.6z"/>
<path class="st19" d="M693.2,142.9l34-51.2l16.1-2.8L775,41.2L758.8,25L711,56.7l-2.8,16.1l-51.1,34L693.2,142.9z"/>
<path class="st20" d="M302.5,440.8c1.4-4.1,2.4-10.3-2-14.7c-33.4-33.4-88.1,78.3-110.2,56.2c-4.9-4.9-3.6-9.1-2.3-11.5
	c2.8,0.4,5.7-0.5,7.7-2.5c3.6-3.6,3.6-9.4,0-13l0,0c-3.6-3.6-9.4-3.6-13,0l0,0c-3,3-3.5,7.7-1.2,11.2c-2.7,3.9-7.8,13.8,1.4,23.1
	c31.5,31.6,90.5-76.8,110.6-56.7c1.3,1.3,1.4,3.2,1.2,4.9c-2.1,0.2-4.1,1-5.7,2.5c-3.6,3.6-3.6,9.4,0,13s9.4,3.6,13,0
	C305.6,449.9,305.8,444.4,302.5,440.8L302.5,440.8z M359.3,497.6c4.1-1.4,10.3-2.5,14.8,2c33.4,33.4-78.3,88.1-56.2,110.2
	c4.9,4.9,9.1,3.6,11.5,2.2c-0.4-2.8,0.5-5.6,2.5-7.7c3.6-3.6,9.4-3.6,13,0l0,0c3.6,3.6,3.6,9.4,0.1,12.9c0,0,0,0-0.1,0.1
	c-3,3-7.6,3.5-11.2,1.2c-3.9,2.7-13.8,7.8-23-1.4c-31.5-31.6,76.8-90.6,56.7-110.7c-1.3-1.3-3.2-1.4-4.9-1.2c-0.1,2.1-1,4.1-2.5,5.7
	c-3.6,3.6-9.4,3.6-13,0c-3.6-3.6-3.6-9.4,0-13C350.2,494.5,355.7,494.3,359.3,497.6L359.3,497.6z"/>
<path class="st20" d="M200.4,536.1c0,0-15.7,26.3-19.3,35.8c-3.2,8.5-3.7,27.6-8.1,35.5c-14.2,25.6-82.8,82.8-82.8,82.8l19.7,19.7
	c0,0,57.2-68.6,82.8-82.8c8-4.4,27-4.9,35.5-8.1c9.5-3.6,35.8-19.3,35.8-19.3L200.4,536.1z"/>
<path id="string" class="st20" d="M338.3,414.6l4.7,4.7L204.8,557.8l-4.7-4.7L338.3,414.6z M380.6,456.9l4.7,4.7L247.1,600.2
	l-4.7-4.7L380.6,456.9z M366.6,442.9l4.7,4.8L233,586l-4.7-4.8L366.6,442.9z M352.5,428.8l4.8,4.7L218.9,571.8l-4.7-4.7L352.5,428.8
	z"/>
<g id="VOILIN_x5F_BAR">
	<path id="violin_x5F_bar" class="st21" d="M87.2,131.5l581.3,581.2l-13.2,13.1L74.1,144.6L87.2,131.5z"/>
	<path class="st22" d="M56.4,162.4l581.2,581.2l-13.1,13.1L43.3,175.5L56.4,162.4z"/>
	<path class="st20" d="M69,201.2l-44-44l62.2-25.7l25.7,25.7L69,201.2z M598.8,731l44,44l25.7-62.2l-25.7-25.7L598.8,731z"/>
</g>
<path class="st20" d="M583.4,689.3l54.2,54.2l-13.1,13.1l-54.2-54.2L583.4,689.3z"/>
</svg>
